<svg id="visual" viewBox="0 0 900 600" width="900" height="600" xmlns="http://www.w3.org/2000/svg" xmlns:xlink="http://www.w3.org/1999/xlink" version="1.1"><rect x="0" y="0" width="900" height="600" fill="#FFFFFF"></rect><path d="M0 225L7.5 228.8C15 232.7 30 240.3 45 250.2C60 260 75 272 90 286C105 300 120 316 135 323.8C150 331.7 165 331.3 180 314.5C195 297.7 210 264.3 225 271.3C240 278.3 255 325.7 270 350.2C285 374.7 300 376.3 315 359.8C330 343.3 345 308.7 360 281.8C375 255 390 236 405 225.3C420 214.7 435 212.3 450 218.2C465 224 480 238 495 267.2C510 296.3 525 340.7 540 361C555 381.3 570 377.7 585 360.7C600 343.7 615 313.3 630 300.2C645 287 660 291 675 295C690 299 705 303 720 312.2C735 321.3 750 335.7 765 326.2C780 316.7 795 283.3 810 267.7C825 252 840 254 855 259.3C870 264.7 885 273.3 892.5 277.7L900 282L900 0L892.5 0C885 0 870 0 855 0C840 0 825 0 810 0C795 0 780 0 765 0C750 0 735 0 720 0C705 0 690 0 675 0C660 0 645 0 630 0C615 0 600 0 585 0C570 0 555 0 540 0C525 0 510 0 495 0C480 0 465 0 450 0C435 0 420 0 405 0C390 0 375 0 360 0C345 0 330 0 315 0C300 0 285 0 270 0C255 0 240 0 225 0C210 0 195 0 180 0C165 0 150 0 135 0C120 0 105 0 90 0C75 0 60 0 45 0C30 0 15 0 7.5 0L0 0Z" fill="#92C80C" stroke-linecap="round" stroke-linejoin="miter"></path></svg>